<?xml version="1.0" standalone="no"?>
<!DOCTYPE svg PUBLIC "-//W3C//DTD SVG 20010904//EN"
 "http://www.w3.org/TR/2001/REC-SVG-20010904/DTD/svg10.dtd">
<svg version="1.0" xmlns="http://www.w3.org/2000/svg"
 width="700.000000pt" height="700.000000pt" viewBox="0 0 700.000000 700.000000"
 preserveAspectRatio="xMidYMid meet">
<metadata>
Created by potrace 1.14, written by Peter Selinger 2001-2017
</metadata>
<g transform="translate(0.000000,700.000000) scale(0.100000,-0.100000)"
fill="#000000" stroke="none">
<path d="M3317 6954 c-1 -1 -47 -4 -102 -8 -55 -3 -111 -8 -125 -10 -26 -4
-83 -12 -160 -22 -25 -3 -90 -15 -145 -26 -658 -131 -1253 -446 -1720 -913
-161 -160 -207 -212 -324 -364 -314 -408 -544 -928 -635 -1436 -42 -233 -50
-317 -50 -570 -1 -339 3 -394 60 -730 10 -63 66 -275 100 -380 158 -487 448
-960 819 -1330 379 -380 813 -653 1305 -823 105 -36 354 -102 440 -117 92 -17
137 -25 155 -29 11 -2 52 -7 90 -11 39 -4 84 -9 100 -11 61 -7 252 -18 315
-18 68 0 296 13 340 18 14 2 48 7 75 10 109 14 135 18 256 42 123 24 364 85
404 103 11 5 49 19 85 31 359 123 774 369 1095 650 69 60 259 252 322 325 112
131 353 465 353 490 0 3 11 23 25 45 102 162 241 490 310 733 62 214 100 416
124 657 9 91 7 556 -4 630 -3 25 -13 95 -21 155 -15 115 -46 274 -70 363 -8
28 -20 76 -28 105 -44 159 -128 372 -221 558 -307 610 -782 1109 -1380 1449
-91 51 -309 160 -321 160 -3 0 -24 8 -47 19 -146 64 -472 163 -617 186 -19 3
-57 10 -85 15 -27 6 -63 12 -80 14 -16 2 -55 7 -85 11 -30 3 -68 8 -85 11 -67
9 -460 24 -468 18z m413 -548 c98 -14 128 -18 155 -22 17 -2 39 -6 50 -8 11
-2 58 -11 105 -20 322 -60 722 -231 1011 -431 576 -399 969 -945 1154 -1605
25 -90 62 -267 71 -336 3 -23 7 -52 9 -64 25 -128 25 -678 0 -720 -1 -3 -6
-30 -9 -61 -4 -31 -9 -67 -11 -80 -102 -534 -311 -975 -644 -1363 -271 -316
-581 -552 -971 -738 -63 -30 -126 -59 -140 -63 -14 -4 -38 -13 -55 -20 -94
-41 -305 -101 -450 -129 -192 -38 -330 -50 -555 -50 -187 0 -336 10 -452 29
-69 12 -88 16 -168 34 -634 145 -1178 476 -1591 971 -276 331 -488 755 -583
1170 -34 147 -44 209 -65 405 -8 72 -6 490 3 535 2 14 7 52 11 85 19 190 104
506 200 745 28 68 131 272 181 355 265 449 684 839 1169 1088 295 152 692 267
1003 293 42 3 79 8 82 11 6 5 443 -5 490 -11z"/>
<path d="M4455 4879 c-129 -13 -234 -65 -332 -166 -197 -202 -194 -535 6 -733
132 -132 322 -186 503 -144 272 64 450 346 392 624 -54 259 -307 446 -569 419z"/>
<path d="M2285 4874 c-88 -21 -164 -57 -227 -106 -88 -70 -137 -140 -174 -252
-63 -188 -17 -392 120 -530 106 -108 211 -155 361 -161 152 -7 279 42 390 150
130 126 186 319 145 497 -43 187 -207 353 -387 394 -37 8 -203 14 -228 8z"/>
<path d="M1994 3178 c-53 -106 -100 -200 -104 -208 -4 -8 -22 -43 -39 -76
l-31 -62 23 -14 c19 -12 218 -111 675 -336 61 -30 112 -58 112 -61 0 -4 -123
-49 -272 -100 -613 -209 -583 -198 -580 -218 2 -10 32 -106 67 -213 35 -107
74 -226 86 -265 12 -38 23 -73 25 -76 2 -4 84 20 181 53 98 32 185 61 193 63
8 2 257 84 553 183 l538 180 212 -105 c117 -58 248 -122 292 -143 44 -21 257
-126 474 -234 217 -108 395 -195 396 -194 2 2 64 125 138 274 l136 271 -405
204 c-222 112 -404 206 -404 209 0 3 187 68 416 145 228 77 420 143 425 146 9
5 -164 554 -181 572 -4 5 -54 -7 -111 -26 -57 -19 -293 -99 -524 -177 -231
-78 -427 -144 -435 -146 -8 -2 -96 -31 -196 -64 l-181 -61 -104 49 c-89 43
-332 162 -1109 545 -86 43 -159 77 -163 77 -4 0 -50 -87 -103 -192z"/>
</g>
</svg>
