<?xml version="1.0" encoding="UTF-8"?>
<!DOCTYPE svg PUBLIC "-//W3C//DTD SVG 1.1//EN" "http://www.w3.org/Graphics/SVG/1.1/DTD/svg11.dtd">
<svg xmlns="http://www.w3.org/2000/svg" version="1.1" width="1600px" height="1600px" style="shape-rendering:geometricPrecision; text-rendering:geometricPrecision; image-rendering:optimizeQuality; fill-rule:evenodd; clip-rule:evenodd" xmlns:xlink="http://www.w3.org/1999/xlink">
<g><path style="opacity:0.991" fill="#BBBBBB" d="M 761.5,10.5 C 993.189,7.40298 1189.69,88.0696 1351,252.5C 1507.8,423.21 1577.8,624.876 1561,857.5C 1542.55,1040.35 1470.22,1197.69 1344,1329.5C 1190.78,1482.35 1005.28,1560.69 787.5,1564.5C 565.941,1560.54 378.107,1479.87 224,1322.5C 66.3209,1150.94 -3.67912,948.269 14,714.5C 36.4195,509.016 124.253,337.85 277.5,201C 416.553,82.357 577.886,18.857 761.5,10.5 Z M 760.5,132.5 C 961.425,128.758 1130.92,199.091 1269,343.5C 1392.54,481.411 1449.87,643.411 1441,829.5C 1426.29,1011.41 1351.12,1162.58 1215.5,1283C 1060.78,1412.11 883.116,1462.45 682.5,1434C 507.044,1402.37 365.877,1315.87 259,1174.5C 154.879,1028.34 115.213,866.009 140,687.5C 170.134,510.959 255.967,368.793 397.5,261C 505.494,182.164 626.494,139.331 760.5,132.5 Z"/></g>
<g><path style="opacity:0.991" fill="#EEEEEE" d="M 529.5,484.5 C 585.346,480.831 626.846,503.164 654,551.5C 675.3,600.827 668.967,646.16 635,687.5C 595.988,726.238 550.488,736.404 498.5,718C 446.415,693.023 421.582,651.523 424,593.5C 433.989,532.679 469.155,496.346 529.5,484.5 Z"/></g>
<g><path style="opacity:0.991" fill="#EEEEEE" d="M 1014.5,484.5 C 1066.84,480.752 1107,500.752 1135,544.5C 1157.24,586.001 1156.91,627.334 1134,668.5C 1103.76,713.53 1061.59,732.363 1007.5,725C 951.134,711.3 918.301,675.8 909,618.5C 905.774,567.787 925.274,528.62 967.5,501C 982.346,492.775 998.013,487.275 1014.5,484.5 Z"/></g>
<g><path style="opacity:0.992" fill="#1890ff" d="M 478.5,828.5 C 583.372,880.436 688.372,932.102 793.5,983.5C 903.626,946.903 1013.63,909.903 1123.5,872.5C 1124.09,872.709 1124.59,873.043 1125,873.5C 1139.31,917.423 1153.81,961.257 1168.5,1005C 1102.39,1027.15 1036.39,1049.48 970.5,1072C 1033.32,1103.24 1095.99,1134.74 1158.5,1166.5C 1137.67,1208.17 1116.83,1249.83 1096,1291.5C 991.362,1239.43 886.528,1187.76 781.5,1136.5C 670.267,1173.91 558.934,1210.91 447.5,1247.5C 433.574,1203.39 419.241,1159.39 404.5,1115.5C 471.022,1092.38 537.688,1069.55 604.5,1047C 542.077,1016.04 479.577,985.205 417,954.5C 416.333,953.5 416.333,952.5 417,951.5C 437.513,910.473 458.013,869.473 478.5,828.5 Z"/></g>
</svg>
